# xmcd
#
# Track frame offsets:
#	150
#	9877
#	22147
#	31127
#	45212
#	55782
#	67217
#	79122
#	88690
#	112847
#	155207
#	188425
#	238390
#
# Disc length: 3531 seconds
#
# Revision: 0
# Processed by: cddbd v1.5.1PL0 Copyright (c) Steve Scherf et al.
# Submitted via: dBpowerAMP V4.0
#
DISCID=9c0dc90d
DTITLE=Canned Heat - Rollin' and Tumblin' 
DYEAR=1900
DGENRE=
TTITLE0=BIG ROAD BLUES
TTITLE1=I'VE GOT MY MOJO WORKING
TTITLE2=PRETTY THINGS
TTITLE3=LOUISE
TTITLE4=DIMPLES
TTITLE5=TALK TO ME BABY
TTITLE6=STRAIGHT AHEAD
TTITLE7=ROLLIN' and TUMBLIN'
TTITLE8=I'D RATHER BE A DEVIL
TTITLE9=IT HURTS ME TOO
TTITLE10=BULLFROG BLUES
TTITLE11=SWEET SIXTEEN
TTITLE12=DUST MY BROOM
EXTD=
EXTT0=
EXTT1=
EXTT2=
EXTT3=
EXTT4=
EXTT5=
EXTT6=
EXTT7=
EXTT8=
EXTT9=
EXTT10=
EXTT11=
EXTT12=
PLAYORDER=
